<svg width="288" height="288" viewBox="0 0 288 288" fill="none" xmlns="http://www.w3.org/2000/svg">
<path d="M96.2884 131.347L97.2691 131.485L97.5475 129.504L96.5667 129.366L101.295 95.7231L101.308 95.6322L101.304 95.5405C101.213 93.4547 100.652 91.0715 99.045 89.0565C97.4565 87.0642 94.933 85.5406 91.1306 84.9593C91.0833 84.9378 91.0471 84.9248 91.0305 84.9189L91.0263 84.9174C90.8957 84.8702 90.7381 84.833 90.6004 84.8035C90.3037 84.74 89.8812 84.668 89.3907 84.5923C88.402 84.4397 87.0612 84.2604 85.7196 84.0898C84.3758 83.9189 83.0227 83.7558 82.0061 83.6354C81.7579 83.606 81.5296 83.5791 81.3264 83.5553L83.8741 65.4275L105.691 68.4937C107.654 68.7696 109.586 69.0057 111.524 69.2425L111.579 69.2493C113.539 69.4888 115.506 69.7295 117.537 70.015L118.527 70.1542L118.667 69.1639L122.485 41.9969L138.947 44.3105L135.129 71.4776L134.99 72.4678L135.98 72.607L150.763 74.6846L151.753 74.8237L151.892 73.8335L155.71 46.6664L172.173 48.9801L168.295 76.5695L168.168 77.4762L169.06 77.6829C180.829 80.4091 191.018 84.2283 198.131 90.0425C205.19 95.8116 209.258 103.571 208.785 114.372L208.785 114.372C208.439 122.344 206.286 128.36 202.883 132.857C199.589 137.207 195.072 140.205 189.718 142.156L188.709 141.758L188.532 143.014L188.512 143.155L188.284 144.776L189.678 144.292C197.805 147.577 204.046 152.106 207.656 158.467C211.336 164.95 212.375 173.501 209.636 184.934C206.236 199.104 199.003 207.224 188.845 211.554C178.6 215.921 165.27 216.48 149.617 215.212L148.678 215.135L148.546 216.069L144.629 243.94L128.167 241.627L131.985 214.459L132.124 213.469L131.134 213.33L116.351 211.252L115.361 211.113L115.222 212.104L111.404 239.271L94.9412 236.957L98.7593 209.79L98.8984 208.8L97.9082 208.66L64.717 203.996L71.0052 183.508C71.2443 183.545 71.5258 183.587 71.8394 183.635C72.8505 183.788 74.1965 183.991 75.5347 184.188C76.8717 184.385 78.2052 184.577 79.1898 184.708C79.6801 184.774 80.0933 184.826 80.3794 184.856C80.5167 184.87 80.6491 184.882 80.7511 184.886L80.7548 184.886C80.7744 184.886 80.8233 184.888 80.8853 184.885C83.6808 185.238 85.7199 184.449 87.1406 183.158C88.5491 181.877 89.2612 180.185 89.598 178.902L89.6129 178.845L89.6211 178.787L96.2884 131.347ZM80.6147 183.874C80.4423 183.858 80.1877 183.829 79.8704 183.789C79.8666 183.83 79.8654 183.872 79.867 183.915C79.8746 184.122 79.9437 184.283 80.0056 184.387C80.1157 184.573 80.2567 184.671 80.2943 184.697L80.6147 183.874ZM133.513 92.2064L133.103 92.1487L132.772 92.398L132.611 92.519L132.28 92.7683L132.223 93.1785L127.039 130.065L126.9 131.055L127.89 131.194L130.976 131.628C137.273 132.656 147.445 134.273 156.402 133.193C160.889 132.653 165.163 131.426 168.509 129.034C171.89 126.616 174.263 123.051 174.974 117.994C175.696 112.852 174.492 108.725 172.018 105.444C169.567 102.194 165.924 99.8458 161.876 98.1122C153.922 94.7058 144.066 93.5394 137.594 92.7735C137.496 92.7619 137.399 92.7505 137.303 92.7391L133.513 92.2064ZM175.509 176.501L175.844 174.11L175.548 174.334C175.698 169.715 174.223 165.901 171.65 162.778C168.692 159.188 164.33 156.563 159.479 154.605C149.794 150.694 137.799 149.303 130.048 148.429L125.556 147.797L124.566 147.658L124.427 148.648L118.709 189.336L118.57 190.326L119.56 190.465L123.216 190.979C123.404 191.007 123.594 191.036 123.787 191.065C131.383 192.206 143.219 193.984 153.62 192.944C158.957 192.41 164.016 191.127 167.954 188.558C171.933 185.963 174.724 182.08 175.509 176.501Z" fill="#6D28D9" stroke="black" stroke-width="2"/>
<circle cx="144" cy="144" r="139.5" stroke="black" stroke-width="9"/>
</svg>
